<?xml version="1.0" encoding="utf-8"?>
<svg viewBox="0 0 16 16" width="512" height="512" xmlns="http://www.w3.org/2000/svg">

<!--
  <rect x="0" y="0" width="16" height="16" rx="0" ry="0" stroke="none" fill="#101050"/>

  <defs>
    <pattern id="grid" width="1" height="1" patternUnits="userSpaceOnUse">
      <path d="M 0 0 L 1 0 1 1 0 1 0 0" fill="none" stroke="red" stroke-width="0.1"/>
    </pattern>
  </defs>

  <rect width="16" height="16" fill="url(#grid)" />
-->
  <rect x="5" y="0" width="7" height="12" rx="1" ry="1" fill="#20a010"/>

  <line x1="3.5" y1="8"          x2="3.5" y2="11.15"               stroke-width="1" stroke="#20a010" />
  <line x1="13.5" y1="8"          x2="13.5" y2="11.15"              stroke-width="1" stroke="#20a010" />

  <line x1="5.85" y1="13.5"          x2="11.15" y2="13.5"              stroke-width="1" stroke="#20a010" />

  <path stroke="#20a010" fill="none" stroke-width="1.25px" d="M 3.5 11 A 2.5 2.5 0 0 0 6 13.5" stroke-linecap="round"/>
  <path stroke="#20a010" fill="none" stroke-width="1.25px" d="M 11 13.5 A 2.5 2.5 0 0 0 13.5 11" stroke-linecap="round"/>

  <line x1="8.5" y1="14"          x2="8.5" y2="15"              stroke-width="1" stroke="#20a010" />
  <line x1="6" y1="15.5"          x2="11" y2="15.5"              stroke-width="1" stroke="#20a010" />

</svg>
