<?xml version="1.0" encoding="utf-8"?>
<svg viewBox="0 0 4096 4096" xmlns="http://www.w3.org/2000/svg">
  <rect style="fill: rgb(96, 96, 96); stroke-width: 0px;" x="1536" y="256" width="1024" height="2560" rx="512" ry="512"/>
  <path style="fill: none; stroke: rgb(96, 96, 96); stroke-linecap: round; stroke-width: 192px;" d="M 1664 3456 C 2254.365 3455.962 2623.3 2815.922 2328.086 2303.926 C 2192.53 2068.829 1943.112 1922.866 1672.046 1920" transform="matrix(0, 1, -1, 0, 4736, 639.999878)"/>
  <line style="stroke: rgb(96, 96, 96); stroke-width: 192px;" x1="2048" y1="3072" x2="2048" y2="3840"/>
  <line style="stroke: rgb(96, 96, 96); stroke-width: 192px; stroke-linecap: round;" x1="1536" y1="3840" x2="2560" y2="3840"/>
  <path d="M 1873 1479.11 Q 1867 1458.11 1867 1433.11 Q 1867 1385.11 1890.5 1354.11 Q 1914 1323.11 1960 1286.11 Q 2003 1251.11 2024.5 1223.11 Q 2046 1195.11 2046 1154.11 Q 2046 1113.11 2017.5 1086.61 Q 1989 1060.11 1938 1060.11 Q 1907 1060.11 1884 1072.61 Q 1861 1085.11 1847.5 1101.61 Q 1834 1118.11 1830 1131.11 L 1730 1081.11 Q 1746 1053.11 1763.5 1030.11 Q 1781 1007.11 1827 983.11 Q 1873 959.11 1944 959.11 Q 2008 959.11 2058.5 983.61 Q 2109 1008.11 2137 1050.61 Q 2165 1093.11 2165 1144.11 Q 2165 1191.11 2149 1225.11 Q 2133 1259.11 2110.5 1281.61 Q 2088 1304.11 2052 1332.11 Q 2012 1363.11 1994 1384.11 Q 1976 1405.11 1976 1436.11 Q 1976 1456.11 1978 1479.11 L 1873 1479.11 Z M 1935 1716.11 Q 1904 1716.11 1883.5 1695.61 Q 1863 1675.11 1863 1645.11 Q 1863 1614.11 1883.5 1593.61 Q 1904 1573.11 1935 1573.11 Q 1965 1573.11 1986 1593.61 Q 2007 1614.11 2007 1645.11 Q 2007 1675.11 1986 1695.61 Q 1965 1716.11 1935 1716.11 Z" transform="matrix(1.56592, 0, 0, 1.576389, -998.063965, -654.321777)" style="fill: rgb(124, 124, 124); stroke: rgb(0, 0, 0); stroke-width: 0px; white-space: pre;"/>
</svg>